<svg id="Layer_1" data-name="Layer 1" xmlns="http://www.w3.org/2000/svg" xmlns:xlink="http://www.w3.org/1999/xlink" viewBox="0 0 353 350"><defs><style>.cls-1{fill:none;}.cls-2{fill:#282a36;}.cls-3{clip-path:url(#clip-path);}.cls-4{fill:#44475a;}.cls-5{fill:#f8f8f2;}.cls-6{fill:#f55;}.cls-7{fill:#bd93f9;}.cls-8{fill:#50fa7b;}.cls-9{fill:#ffb86c;}.cls-10{fill:#00d1b2;}</style><clipPath id="clip-path"><rect class="cls-1" x="1.5" width="350" height="350" rx="44.91" ry="44.91"/></clipPath></defs><title>ui-header</title><rect class="cls-2" x="1.5" width="350" height="350" rx="44.91" ry="44.91"/><g class="cls-3"><rect class="cls-4" x="-27.08" y="41.71" width="142.55" height="363.48"/><rect class="cls-5" x="-34.09" y="-21.39" width="412.47" height="71.28"/></g><rect class="cls-4" x="123.65" y="60.4" width="13.79" height="13.79"/><rect class="cls-4" x="123.65" y="84.52" width="13.79" height="13.79"/><rect class="cls-4" x="123.65" y="108.63" width="13.79" height="13.79"/><rect class="cls-4" x="123.65" y="132.74" width="13.79" height="13.79"/><rect class="cls-4" x="123.65" y="156.86" width="13.79" height="13.79"/><rect class="cls-4" x="123.65" y="180.97" width="13.79" height="13.79"/><rect class="cls-4" x="123.65" y="205.08" width="13.79" height="13.79"/><rect class="cls-4" x="123.65" y="229.19" width="13.79" height="13.79"/><rect class="cls-4" x="123.65" y="253.31" width="13.79" height="13.79"/><rect class="cls-4" x="123.65" y="277.42" width="13.79" height="13.79"/><rect class="cls-4" x="123.65" y="301.53" width="13.79" height="13.79"/><rect class="cls-4" x="123.65" y="325.64" width="13.79" height="13.79"/><rect class="cls-6" x="13.81" y="60.4" width="13.79" height="13.79"/><rect class="cls-6" x="35.86" y="60.4" width="68.32" height="13.79"/><rect class="cls-2" x="44.97" y="84.52" width="46.89" height="13.79"/><rect class="cls-2" x="44.97" y="108.63" width="52.19" height="13.79"/><rect class="cls-2" x="44.97" y="132.74" width="38.93" height="13.79"/><rect class="cls-2" x="44.97" y="156.86" width="46.89" height="13.79"/><rect class="cls-2" x="44.97" y="180.97" width="52.19" height="13.79"/><rect class="cls-2" x="44.97" y="205.08" width="43.57" height="13.79"/><rect class="cls-2" x="44.97" y="229.19" width="49.54" height="13.79"/><rect class="cls-2" x="22.07" y="84.52" width="13.79" height="13.79"/><rect class="cls-2" x="22.07" y="108.63" width="13.79" height="13.79"/><rect class="cls-2" x="22.07" y="132.74" width="13.79" height="13.79"/><rect class="cls-2" x="22.07" y="156.86" width="13.79" height="13.79"/><rect class="cls-2" x="22.07" y="180.97" width="13.79" height="13.79"/><rect class="cls-2" x="22.07" y="205.08" width="13.79" height="13.79"/><rect class="cls-2" x="22.07" y="229.19" width="13.79" height="13.79"/><rect class="cls-7" x="151.92" y="62.74" width="40.08" height="9.12"/><rect class="cls-5" x="204.04" y="62.74" width="9.59" height="9.12"/><rect class="cls-8" x="183.83" y="86.85" width="64.27" height="9.12"/><rect class="cls-8" x="183.83" y="110.97" width="76.24" height="9.12"/><rect class="cls-8" x="183.83" y="135.08" width="51.41" height="9.12"/><rect class="cls-9" x="258.61" y="86.85" width="64.27" height="9.12"/><rect class="cls-9" x="271.46" y="110.97" width="40.9" height="9.12"/><rect class="cls-9" x="246.45" y="135.08" width="85.18" height="9.12"/><rect class="cls-7" x="151.92" y="183.3" width="55.27" height="9.12"/><rect class="cls-5" x="218.82" y="183.3" width="25.3" height="9.12"/><rect class="cls-8" x="183.83" y="207.42" width="29.8" height="9.12"/><rect class="cls-8" x="183.83" y="231.53" width="51.41" height="9.12"/><rect class="cls-8" x="183.83" y="255.64" width="12.56" height="9.12"/><rect class="cls-9" x="224.72" y="207.42" width="73.03" height="9.12"/><rect class="cls-9" x="246.45" y="231.53" width="65.9" height="9.12"/><rect class="cls-9" x="208.36" y="255.64" width="81.21" height="9.12"/><rect class="cls-5" x="151.92" y="303.87" width="22.24" height="9.12"/><circle class="cls-6" cx="29.82" cy="25.93" r="6.04"/><circle class="cls-9" cx="46.75" cy="25.93" r="6.04"/><circle class="cls-10" cx="63.67" cy="25.93" r="6.04"/></svg>