<svg xmlns="http://www.w3.org/2000/svg" xmlns:xlink="http://www.w3.org/1999/xlink" viewBox="0 0 100 100"><defs><linearGradient id="a" x1="-30.36" y1="-5.05" x2="-30.36" y2="-21.42" gradientTransform="translate(80.18 65.78)" gradientUnits="userSpaceOnUse"><stop offset="0" stop-color="#c80000"/><stop offset="0.33" stop-color="#c80000" stop-opacity="0.99"/><stop offset="0.51" stop-color="#c80000" stop-opacity="0.95"/><stop offset="0.65" stop-color="#c80000" stop-opacity="0.88"/><stop offset="0.78" stop-color="#c80000" stop-opacity="0.78"/><stop offset="0.89" stop-color="#c80000" stop-opacity="0.66"/><stop offset="1" stop-color="#c80000" stop-opacity="0.5"/><stop offset="1" stop-color="#c80000" stop-opacity="0.5"/></linearGradient><linearGradient id="b" x1="-17.7" y1="-5.05" x2="-17.7" y2="-21.42" gradientTransform="translate(79.76 62.57)" xlink:href="#a"/><linearGradient id="c" x1="57.38" y1="59.14" x2="54.49" y2="42.73" gradientTransform="translate(14.74 -12.52) rotate(14.68)" gradientUnits="userSpaceOnUse"><stop offset="0" stop-color="#c80000" stop-opacity="0.1"/><stop offset="0.61" stop-color="#c80000" stop-opacity="0"/><stop offset="0.67" stop-color="#c80000" stop-opacity="0.08"/><stop offset="0.74" stop-color="#c80000" stop-opacity="0.15"/><stop offset="0.83" stop-color="#c80000" stop-opacity="0.19"/><stop offset="1" stop-color="#c80000" stop-opacity="0.2"/></linearGradient><linearGradient id="d" x1="53.71" y1="43.22" x2="52.83" y2="38.28" gradientTransform="translate(12.07 -12.17) rotate(14.68)" gradientUnits="userSpaceOnUse"><stop offset="0" stop-color="#c80000" stop-opacity="0"/><stop offset="0.14" stop-color="#c80000" stop-opacity="0.08"/><stop offset="0.33" stop-color="#c80000" stop-opacity="0.15"/><stop offset="0.57" stop-color="#c80000" stop-opacity="0.19"/><stop offset="1" stop-color="#c80000" stop-opacity="0.2"/></linearGradient></defs><title>product-type_gift_cards</title><ellipse cx="52.79" cy="84.53" rx="30.79" ry="3.75" style="fill:#c80000;opacity:0.15"/><path d="M16.3,37.72a.76.76,0,0,1,.54-.93L77.09,20.68,70.6,8.28a.77.77,0,0,0-1-.32L9.1,39.66a.75.75,0,0,0-.33,1l17,32.41Z" style="fill:#c80000;opacity:0.15"/><rect x="13.47" y="21.58" width="69.8" height="38.95" rx="0.85" ry="0.85" transform="translate(-13.53 27.15) rotate(-27.66)" style="fill:none;stroke:#c80000;stroke-miterlimit:10;stroke-width:1.5px"/><rect x="19.95" y="27.31" width="69.8" height="38.95" rx="0.85" ry="0.85" transform="translate(-10.23 15.76) rotate(-14.97)" style="fill:#fff"/><rect x="19.95" y="27.31" width="69.8" height="38.95" rx="0.85" ry="0.85" transform="translate(-10.23 15.76) rotate(-14.97)" style="fill:none;stroke:#c80000;stroke-miterlimit:10;stroke-width:1.5px"/><rect x="45.62" y="44.35" width="8.4" height="16.37" transform="translate(-11.69 14.34) rotate(-14.68)" style="fill:url(#a)"/><rect x="57.86" y="41.15" width="8.4" height="16.37" transform="translate(-10.48 17.34) rotate(-14.68)" style="fill:url(#b)"/><rect x="53.81" y="42.75" width="4.25" height="16.37" transform="translate(-11.08 15.84) rotate(-14.68)" style="fill:url(#c)"/><rect x="40.94" y="40.27" width="10.45" height="4.69" transform="translate(-9.29 13.09) rotate(-14.68)" style="fill:#c80000"/><rect x="55.15" y="36.54" width="10.45" height="4.69" transform="translate(-7.88 16.57) rotate(-14.68)" style="fill:#c80000"/><rect x="51.14" y="38.41" width="4.25" height="4.69" transform="translate(-8.59 14.83) rotate(-14.68)" style="fill:url(#d)"/><path d="M53.61,39l-3,.77a3,3,0,1,1,2.18-3.72ZM49.5,35.39a1.51,1.51,0,0,0,.77,2.93l1.47-.38-.38-1.47A1.53,1.53,0,0,0,49.5,35.39Z" style="fill:#c80000"/><path d="M55.08,38.65l-2.95.77-.77-3a3,3,0,1,1,3.72,2.18Zm-1.86-1.1,1.47-.39a1.51,1.51,0,1,0-1.85-1.08Z" style="fill:#c80000"/><path d="M51.35,39.62a7.57,7.57,0,0,1-7.3-1.57,3.08,3.08,0,0,0-3.2-1l-.41-1.48h.07A4.62,4.62,0,0,1,45.17,37,6,6,0,0,0,51,38.14Z" style="fill:#c80000"/><path d="M53.44,39.08l-.39-1.49a.27.27,0,0,0,.13-.05s0-.25,0-.4a2.77,2.77,0,0,1,1.25-2.53,5.07,5.07,0,0,1,2.36-.69c1.32-.15,2.05-.24,2.25-2l1.52.18c-.34,3-2.21,3.16-3.59,3.32a3.85,3.85,0,0,0-1.68.44,1.27,1.27,0,0,0-.58,1.29A1.7,1.7,0,0,1,53.44,39.08Z" style="fill:#c80000"/></svg>