<svg xmlns="http://www.w3.org/2000/svg" viewBox="0 0 100 100"><title>product-type_vouchers</title><ellipse cx="52.42" cy="84.53" rx="30.79" ry="3.75" style="fill:#c80000;opacity:0.15"/><path d="M76.67,30.14a5.4,5.4,0,0,1,3-7L74.44,9.82,6.69,36.6,12,49.91a5.4,5.4,0,0,1,4,10.05l5.26,13.31L88.94,46.5,83.68,33.18A5.39,5.39,0,0,1,76.67,30.14Z" style="fill:none;stroke:#c80000;stroke-miterlimit:10;stroke-width:1.5px"/><line x1="17.26" y1="32.42" x2="17.99" y2="34.28" style="fill:none;stroke:#c80000;stroke-miterlimit:10;stroke-width:1.5px"/><line x1="19.44" y1="37.94" x2="30.29" y2="65.41" style="fill:none;stroke:#c80000;stroke-miterlimit:10;stroke-width:1.5px;stroke-dasharray:3.9372494220733643,3.9372494220733643"/><line x1="31.02" y1="67.24" x2="31.75" y2="69.1" style="fill:none;stroke:#c80000;stroke-miterlimit:10;stroke-width:1.5px"/><circle cx="37.45" cy="45.64" r="8.36" style="fill:#c80000;opacity:0.15"/><polyline points="33.27 47.38 37.11 49.05 40.54 41.15" style="fill:none;stroke:#c80000;stroke-miterlimit:10;stroke-width:1.5px"/><line x1="46.69" y1="37.8" x2="71.76" y2="27.89" style="fill:none;stroke:#c80000;stroke-miterlimit:10;stroke-width:1.5px"/><line x1="48.12" y1="41.42" x2="73.2" y2="31.52" style="fill:none;stroke:#c80000;stroke-miterlimit:10;stroke-width:1.5px"/><line x1="49.56" y1="45.05" x2="63.37" y2="39.59" style="fill:none;stroke:#c80000;stroke-miterlimit:10;stroke-width:1.5px"/><polygon points="17.62 64.25 21.18 73.27 88.94 46.49 88.88 46.35 17.62 64.25" style="fill:#c80000;opacity:0.15"/></svg>