<svg xmlns="http://www.w3.org/2000/svg" viewBox="0 0 100 100"><title>product-type_redemption_programs</title><polyline points="18.44 55.97 18.44 14.89 22.19 18.32 25.93 14.89 29.67 18.32 33.41 14.89 37.16 18.32 40.9 14.89 44.64 18.32 48.38 14.89 52.12 18.32 55.86 14.89 59.6 18.32 63.34 14.89 67.08 18.32 70.82 14.89 70.82 35.62" style="fill:none;stroke:#c80000;stroke-miterlimit:10;stroke-width:1.5px"/><path d="M31.77,35.61H84.15a4.44,4.44,0,0,1,4.44,4.45V86.63L84.85,83.2,81.1,86.63,77.36,83.2l-3.74,3.43L69.88,83.2l-3.74,3.43L62.4,83.2l-3.74,3.43L54.92,83.2l-3.74,3.43L47.44,83.2,43.7,86.63,40,83.2l-3.74,3.43V40.06a4.44,4.44,0,1,0-8.88,0V56a4.45,4.45,0,0,1-8.89,0" style="fill:none;stroke:#c80000;stroke-miterlimit:10;stroke-width:1.5px"/><path d="M22.89,60.41H36.21V39.92s-.17-4.31-4.44-4.31a4.11,4.11,0,0,0-4.41,3.9l0,16.46s-.41,3.31-1.8,4.05" style="fill:#c80000;opacity:0.15"/><line x1="22.89" y1="60.41" x2="36.21" y2="60.41" style="fill:none;stroke:#c80000;stroke-miterlimit:10;stroke-width:1.5px"/><path d="M45.69,70.34h2.09c1.24,0,2.26.43,2.26,1.83s-1,1.93-2.26,1.93H47v2.11H45.69Zm2,2.7c.7,0,1.07-.3,1.07-.87s-.37-.77-1.07-.77H47V73Zm.78-.14,1.88,3.31H48.84l-1.31-2.46Z" style="fill:#c80000"/><path d="M51.52,70.34h3.89v1.12H52.85v1.17H55v1.11H52.85v1.35H55.5v1.12h-4Z" style="fill:#c80000"/><path d="M57,70.34h1.62a2.57,2.57,0,0,1,2.82,2.91c0,2-1.12,3-2.74,3H57Zm1.55,4.8c.91,0,1.53-.49,1.53-1.89s-.62-1.84-1.53-1.84h-.22v3.73Z" style="fill:#c80000"/><path d="M62.77,70.34h3.89v1.12H64.1v1.17h2.18v1.11H64.1v1.35h2.65v1.12h-4Z" style="fill:#c80000"/><path d="M68.4,70.34h3.89v1.12H69.73v1.17H71.9v1.11H69.73v1.35h2.65v1.12h-4Z" style="fill:#c80000"/><path d="M73.71,70.34H75.1l.58,2.08.2.81h0l.2-.81.57-2.08h1.4v5.87H77V74.39c0-.66.12-2.09.18-2.72h0l-.45,1.57-.45,1.41h-.65l-.46-1.41-.42-1.57h0c.07.63.18,2.06.18,2.72v1.82H73.71Z" style="fill:#c80000"/><polygon points="61.39 47.35 63.49 53.82 70.29 53.82 64.79 57.82 66.89 64.28 61.39 60.29 55.89 64.28 57.99 57.82 52.49 53.82 59.29 53.82 61.39 47.35" style="fill:#c80000"/></svg>