<svg xmlns="http://www.w3.org/2000/svg" viewBox="0 0 100 100"><title>sales-method_app</title><ellipse cx="50" cy="92.69" rx="30.79" ry="3.75" style="fill:#c80000;opacity:0.15"/><path d="M20,23.29,42.91,82a3.72,3.72,0,0,0,4.67,2.38l29.51-11.5A3.71,3.71,0,0,0,78.92,68L56,9.26a3.72,3.72,0,0,0-4.67-2.38L21.85,18.38A3.71,3.71,0,0,0,20,23.29Z" style="fill:none;stroke:#c80000;stroke-miterlimit:10;stroke-width:1.5px"/><circle cx="60.07" cy="72.86" r="2.92" style="fill:#c80000"/><rect x="34.37" y="16.05" width="9.84" height="0.8" transform="translate(-3.29 15.39) rotate(-21.29)" style="fill:#c80000"/><circle cx="33.27" cy="18.8" r="0.69" style="fill:#c80000"/><rect x="32.98" y="18.08" width="31.79" height="52.09" transform="translate(-12.69 20.76) rotate(-21.29)" style="fill:#c80000;opacity:0.15"/><path d="M47.36,16.77,33.14,47.52l.66,1.7L49.13,16.08ZM33.27,22.26,27.86,34l.79,2,6.73-14.55Zm21-8.17-2.62,1L34.74,51.61l2.19,5.64,18.52-40Z" style="fill:#fff;opacity:0.5"/></svg>