<svg xmlns="http://www.w3.org/2000/svg" viewBox="0 0 460.04 125.4"><title>prelude-logo</title><path d="M172.09,67.25V89.46H160.35V26.37H180.9a36,36,0,0,1,10.95,1.48A21.09,21.09,0,0,1,199.49,32a16.22,16.22,0,0,1,4.45,6.37,22.19,22.19,0,0,1,1.44,8.11,22.42,22.42,0,0,1-1.53,8.4,17.63,17.63,0,0,1-4.58,6.57,21.38,21.38,0,0,1-7.64,4.27,33.9,33.9,0,0,1-10.73,1.53Zm0-9.16h8.81a17.65,17.65,0,0,0,5.63-.81,10.54,10.54,0,0,0,4-2.31,9.46,9.46,0,0,0,2.35-3.67,13.89,13.89,0,0,0,.79-4.82,12.58,12.58,0,0,0-.79-4.58,9,9,0,0,0-2.35-3.49,10.51,10.51,0,0,0-4-2.2,18.6,18.6,0,0,0-5.63-.77h-8.81Z" style="fill:#1f2024"/><path d="M213.88,89.46V44.69h6.33a3.4,3.4,0,0,1,2.31.61,3.54,3.54,0,0,1,.88,2.1l.65,5.41a21.12,21.12,0,0,1,5.63-6.55,11.82,11.82,0,0,1,7.24-2.4,9.37,9.37,0,0,1,5.5,1.53L241,53.46a1.62,1.62,0,0,1-.57,1.11,1.89,1.89,0,0,1-1.17.33,7.4,7.4,0,0,1-1.79-.3,11.67,11.67,0,0,0-3-.31,9.18,9.18,0,0,0-5.76,1.85,14.25,14.25,0,0,0-4.06,5.44V89.46Z" style="fill:#1f2024"/><path d="M268,44a21.61,21.61,0,0,1,7.79,1.36A17.06,17.06,0,0,1,282,49.29a18.26,18.26,0,0,1,4,6.37,24.08,24.08,0,0,1,1.44,8.62,16,16,0,0,1-.11,2,3.23,3.23,0,0,1-.39,1.27,1.62,1.62,0,0,1-.77.65,3.24,3.24,0,0,1-1.22.2H257.25q.48,6.88,3.71,10.12a11.56,11.56,0,0,0,8.55,3.23,15.07,15.07,0,0,0,4.52-.61,20.81,20.81,0,0,0,3.31-1.36q1.43-.74,2.49-1.35a4.12,4.12,0,0,1,2.07-.61,2.4,2.4,0,0,1,1.14.26,2.64,2.64,0,0,1,.83.74L287,82.78a17.77,17.77,0,0,1-4,3.51,22.39,22.39,0,0,1-4.64,2.27,25.14,25.14,0,0,1-4.93,1.2,35.9,35.9,0,0,1-4.87.35,24,24,0,0,1-8.68-1.55,19.4,19.4,0,0,1-7-4.58,21.38,21.38,0,0,1-4.67-7.5,28.94,28.94,0,0,1-1.7-10.37A24.73,24.73,0,0,1,248,57.5a20.81,20.81,0,0,1,4.26-7A19.94,19.94,0,0,1,259,45.74,22.31,22.31,0,0,1,268,44Zm.22,7.73a10,10,0,0,0-7.38,2.66,13.11,13.11,0,0,0-3.4,7.55h20.24a13.66,13.66,0,0,0-.56-4,9,9,0,0,0-1.75-3.25,8.21,8.21,0,0,0-3-2.21A10.22,10.22,0,0,0,268.25,51.72Z" style="fill:#1f2024"/><path d="M307.64,24.62V89.46H296.87V24.62Z" style="fill:#1f2024"/><path d="M329.67,44.69V73.14a9.61,9.61,0,0,0,1.9,6.35,7,7,0,0,0,5.7,2.24,11.35,11.35,0,0,0,5.23-1.24,18.51,18.51,0,0,0,4.63-3.42V44.69H357.9V89.46h-6.58a2.65,2.65,0,0,1-2.75-2l-.75-3.57a30.94,30.94,0,0,1-2.88,2.55,17.17,17.17,0,0,1-3.16,2,18,18,0,0,1-3.62,1.27,18.38,18.38,0,0,1-4.17.45,15.9,15.9,0,0,1-6.48-1.24,13.05,13.05,0,0,1-4.73-3.51,15.28,15.28,0,0,1-2.9-5.39,22.94,22.94,0,0,1-1-6.87V44.69Z" style="fill:#1f2024"/><path d="M400.92,89.46a2.65,2.65,0,0,1-2.75-2l-.87-4.32A26.84,26.84,0,0,1,394.38,86a18.67,18.67,0,0,1-3.3,2.18,17.53,17.53,0,0,1-3.79,1.42,18.56,18.56,0,0,1-4.39.5,14.59,14.59,0,0,1-12-6A21.29,21.29,0,0,1,367.52,77a36.24,36.24,0,0,1-1.2-9.77A30.55,30.55,0,0,1,367.67,58a22.6,22.6,0,0,1,3.89-7.42,18.05,18.05,0,0,1,6.06-4.91,17.52,17.52,0,0,1,7.94-1.77,15.55,15.55,0,0,1,6.42,1.2,16.72,16.72,0,0,1,4.75,3.21V24.62h10.78V89.46Zm-14.35-7.9a11,11,0,0,0,5.71-1.4,16.81,16.81,0,0,0,4.45-4V56.12a10.61,10.61,0,0,0-4-3.14,11.79,11.79,0,0,0-4.65-.91,10.48,10.48,0,0,0-4.43.91,8.66,8.66,0,0,0-3.35,2.77,13.49,13.49,0,0,0-2.12,4.71,26.89,26.89,0,0,0-.74,6.75,30.07,30.07,0,0,0,.63,6.65,13.17,13.17,0,0,0,1.81,4.45,6.87,6.87,0,0,0,2.88,2.48A9.15,9.15,0,0,0,386.57,81.56Z" style="fill:#1f2024"/><path d="M437.65,44a21.53,21.53,0,0,1,7.79,1.36,17,17,0,0,1,6.13,3.94,18.14,18.14,0,0,1,4,6.37A24.08,24.08,0,0,1,457,64.28a16,16,0,0,1-.11,2,3.6,3.6,0,0,1-.39,1.27,1.62,1.62,0,0,1-.77.65,3.27,3.27,0,0,1-1.22.2H426.88q.48,6.88,3.71,10.12a11.56,11.56,0,0,0,8.55,3.23,15,15,0,0,0,4.51-.61A21,21,0,0,0,447,79.81q1.41-.74,2.49-1.35a4.12,4.12,0,0,1,2.07-.61,2.36,2.36,0,0,1,1.13.26,2.54,2.54,0,0,1,.83.74l3.14,3.93a17.72,17.72,0,0,1-4,3.51A22.23,22.23,0,0,1,448,88.56a24.8,24.8,0,0,1-4.93,1.2,35.64,35.64,0,0,1-4.86.35,23.94,23.94,0,0,1-8.68-1.55,19.31,19.31,0,0,1-7-4.58,21.38,21.38,0,0,1-4.67-7.5,28.94,28.94,0,0,1-1.7-10.37,24.73,24.73,0,0,1,1.48-8.61,20.94,20.94,0,0,1,4.25-7,20.08,20.08,0,0,1,6.77-4.73A22.3,22.3,0,0,1,437.65,44Zm.22,7.73a9.93,9.93,0,0,0-7.37,2.66,13.11,13.11,0,0,0-3.4,7.55h20.24a13.33,13.33,0,0,0-.57-4A8.86,8.86,0,0,0,445,54.73a8.38,8.38,0,0,0-3-2.21A10.24,10.24,0,0,0,437.87,51.72Z" style="fill:#1f2024"/><path d="M49.12,0c-17,0-5,62.7-49.12,62.7H98.24C54.16,62.7,66.16,0,49.12,0Z" style="fill:#3870c4"/><path d="M49.12,125.4c17,0,5-62.7,49.12-62.7H0C44.08,62.7,32.08,125.4,49.12,125.4Z" style="fill:#3870c4"/><path d="M125.42,62.7h0c-37.08,0-27-46.63-41.32-46.63S79.86,62.7,42.78,62.7h0c37.08,0,27,46.64,41.32,46.64S88.34,62.7,125.42,62.7Z" style="fill:#44c7f4"/><path d="M.7,62.69h0Z" style="fill:#00b3a4"/><polygon points="1.1 62.7 1.69 62.7 1.68 62.7 1.1 62.7 1.1 62.7" style="fill:#00b3a4"/><path d="M.51,62.67H0l.43,0Z" style="fill:#00b3a4"/><path d="M0,62.7H0Z" style="fill:#00b3a4"/><polygon points="0.59 62.7 0 62.7 0 62.7 0.59 62.7 0.59 62.7" style="fill:#00b3a4"/><path d="M1.06,62.64a38.17,38.17,0,0,0,4.11-.3C3.79,62.45,2.38,62.56,1.06,62.64Z" style="fill:#00b3a4"/><path d="M1.1,62.7h.58l-.72,0H1.1Z" style="fill:#00b3a4"/><path d="M0,62.7l.88,0-.29,0Z" style="fill:#00b3a4"/><polygon points="5.66 62.66 0.68 62.66 0.67 62.66 5.65 62.66 5.66 62.66" style="fill:#00b3a4"/><path d="M2.58,62.77h.33L1.68,62.7H1.1Z" style="fill:#00b3a4"/><path d="M.68,62.69h0Z" style="fill:#00b3a4"/><path d="M.59,62.7H.32L0,62.7H.59Z" style="fill:#00b3a4"/><polygon points="4.24 62.7 4.24 62.7 1.68 62.7 1.69 62.7 4.24 62.7" style="fill:#00b3a4"/><path d="M1,62.68H1Z" style="fill:#00b3a4"/><path d="M0,62.66H.67l.39,0Z" style="fill:#00b3a4"/><path d="M.67,62.66h0Z" style="fill:#00b3a4"/><path d="M34.29,32.7h0C30,46.6,22.75,60.14,5.17,62.34L6,62.28C23,59.76,30.05,46.4,34.29,32.7Z" style="fill:#00b3a4"/><path d="M97.37,62.7Z" style="fill:#00b3a4"/><path d="M98.24,62.7h0l-2.4-.07c-13.56-.74-21.44-7.77-26.51-16.87A41,41,0,0,1,67,49.56,13.65,13.65,0,0,1,55.7,55.08c-10.1,0-15.4-7.61-19.29-16.26-.79-2-1.49-4.06-2.12-6.12C30.05,46.4,23,59.76,6,62.28l-.82.06a38.17,38.17,0,0,1-4.11.3l-.39,0H1l.72,0h0l1.23.07H2.58l1.35.07c18.49,1.71,26,15.56,30.35,29.8.64-2.07,1.34-4.13,2.13-6.14C40.3,77.86,45.6,70.25,55.7,70.25A13.64,13.64,0,0,1,67,75.76a43.67,43.67,0,0,1,2.38,3.82l.06-.12v0C74.77,69.94,83.27,62.7,98.24,62.7Z" style="fill:#00b3a4"/><path d="M.68,62.69h0Z" style="fill:#00b3a4"/><path d="M2.25,62.76l-1.37,0C1.32,62.75,1.78,62.76,2.25,62.76Z" style="fill:#00b3a4"/><path d="M0,62.66l.32,0H.43Z" style="fill:#00b3a4"/><polygon points="0.59 62.7 0.59 62.7 1.1 62.7 1.1 62.7 0.59 62.7" style="fill:#00b3a4"/><path d="M.68,62.69h0Z" style="fill:#00b3a4"/><path d="M1.1,62.7H.59l.29,0,1.37,0h.33Z" style="fill:#00b3a4"/><path d="M.7,62.69h0Z" style="fill:#00b3a4"/></svg>