<?xml version="1.0" standalone="no"?>
<!DOCTYPE svg PUBLIC "-//W3C//DTD SVG 20010904//EN"
 "http://www.w3.org/TR/2001/REC-SVG-20010904/DTD/svg10.dtd">
<svg version="1.0" xmlns="http://www.w3.org/2000/svg"
 width="260.000000pt" height="260.000000pt" viewBox="0 0 260.000000 260.000000"
 preserveAspectRatio="xMidYMid meet">
<metadata>
Created by potrace 1.11, written by Peter Selinger 2001-2013
</metadata>
<g transform="translate(0.000000,260.000000) scale(0.100000,-0.100000)"
fill="#000000" stroke="none">
<path d="M0 1300 l0 -1300 1300 0 1300 0 0 1300 0 1300 -1300 0 -1300 0 0
-1300z m1507 795 c148 -28 266 -76 361 -147 l52 -39 -117 -133 -118 -132 -50
41 c-28 22 -75 52 -105 65 -49 23 -68 25 -185 25 -125 0 -133 -1 -196 -31
-117 -56 -196 -146 -240 -275 -30 -88 -30 -246 0 -340 45 -142 147 -248 280
-290 84 -27 260 -29 336 -5 28 9 53 16 58 16 4 0 7 -76 7 -170 l0 -169 -37 -8
c-21 -4 -117 -8 -213 -7 -204 0 -276 15 -425 89 -152 75 -267 190 -340 340
-68 140 -80 195 -80 375 0 180 12 236 80 375 50 102 109 179 192 248 101 83
259 153 400 177 81 13 256 11 340 -5z m423 -945 l0 -290 -170 0 -170 0 0 140
0 140 -150 0 -150 0 0 143 c0 79 3 147 7 150 3 4 147 7 320 7 l313 0 0 -290z"/>
</g>
</svg>
