<svg id="Layer_1" data-name="Layer 1" xmlns="http://www.w3.org/2000/svg" viewBox="0 0 24 24"><defs><style>.cls-1{fill:#595d64;}</style></defs><title>dribbble</title><path class="cls-1" d="M12,.89a11,11,0,1,0,11,11A11,11,0,0,0,12,.89ZM19.29,6a9.38,9.38,0,0,1,2.13,5.87,22.42,22.42,0,0,0-6.56-.3c-.07-.15-.13-.32-.2-.49-.19-.45-.41-.92-.62-1.36A12.55,12.55,0,0,0,19.29,6ZM12,2.52a9.4,9.4,0,0,1,6.25,2.37A10.69,10.69,0,0,1,13.31,8.3,48.91,48.91,0,0,0,9.78,2.78,9.5,9.5,0,0,1,12,2.52ZM8,3.41a60.44,60.44,0,0,1,3.5,5.45A35.6,35.6,0,0,1,2.77,10,9.47,9.47,0,0,1,8,3.41ZM2.56,12v-.29a34.62,34.62,0,0,0,9.69-1.34c.28.53.53,1.07.77,1.6l-.37.11A15,15,0,0,0,5,18.25,9.46,9.46,0,0,1,2.56,12ZM12,21.37a9.37,9.37,0,0,1-5.78-2,12.9,12.9,0,0,1,7.4-5.9l.06,0a39.39,39.39,0,0,1,2,7.15A9.29,9.29,0,0,1,12,21.37Zm5.26-1.61A41.2,41.2,0,0,0,15.43,13a13.63,13.63,0,0,1,5.86.41A9.33,9.33,0,0,1,17.26,19.76Z"/></svg>