<svg id="Layer_1" data-name="Layer 1" xmlns="http://www.w3.org/2000/svg" xmlns:xlink="http://www.w3.org/1999/xlink" viewBox="0 0 75 75"><defs><style>.cls-1{fill:none;}.cls-2{clip-path:url(#clip-path);}.cls-3{fill:#00d1b2;}</style><clipPath id="clip-path"><circle class="cls-1" cx="37.5" cy="37.5" r="37.5"/></clipPath></defs><title>logo-icon</title><g class="cls-2"><path class="cls-3" d="M0,37.5V75H75V0H0ZM43.47,14.57a24.51,24.51,0,0,1,10.41,4.24l1.5,1.12L52,23.77l-3.4,3.81-1.45-1.19a16.42,16.42,0,0,0-3-1.87c-1.41-.66-2-.72-5.33-.72-3.61,0-3.84,0-5.66.89a13,13,0,0,0-6.92,7.93,19,19,0,0,0,0,9.81A12.48,12.48,0,0,0,34.3,50.8a21.61,21.61,0,0,0,9.69.14,12.45,12.45,0,0,1,1.67-.46,28.24,28.24,0,0,1,.21,4.9v4.88l-1.07.23a53.43,53.43,0,0,1-6.15.2c-5.88,0-8-.43-12.26-2.57a21,21,0,0,1-9.8-9.8c-2-4-2.31-5.63-2.31-10.82s.35-6.81,2.31-10.82a20.59,20.59,0,0,1,5.54-7.15,26.61,26.61,0,0,1,11.53-5.11A38.87,38.87,0,0,1,43.47,14.57Zm12.2,27.26v8.36h-9.8V42.12H37.21V38a25.51,25.51,0,0,1,.2-4.33c.09-.11,4.24-.2,9.23-.2h9Z"/></g></svg>