<svg id="Layer_1" data-name="Layer 1" xmlns="http://www.w3.org/2000/svg" viewBox="0 0 204.92 46.19"><defs><style>.cls-1{fill:#585d65;}.cls-2{fill:#606060;}</style></defs><title>logo</title><path class="cls-1" d="M0,23.1V46.19H46.19V0H0ZM26.77,9a15.27,15.27,0,0,1,6.42,2.61l.92.7L32,14.64,29.94,17l-.89-.72a10.3,10.3,0,0,0-1.87-1.16c-.87-.41-1.21-.44-3.28-.44s-2.37,0-3.49.55a8,8,0,0,0-4.26,4.88,11.67,11.67,0,0,0,0,6,7.69,7.69,0,0,0,5,5.16,13.4,13.4,0,0,0,6,.09,8.57,8.57,0,0,1,1-.29,16.69,16.69,0,0,1,.13,3v3l-.66.15a33.61,33.61,0,0,1-3.78.12c-3.63,0-4.91-.27-7.55-1.58a12.92,12.92,0,0,1-6-6A11.85,11.85,0,0,1,8.79,23.1a11.83,11.83,0,0,1,1.43-6.67A12.52,12.52,0,0,1,13.63,12a16.34,16.34,0,0,1,7.1-3.15A24,24,0,0,1,26.77,9Zm7.52,16.79v5.15h-6v-5H22.92V23.4A15.67,15.67,0,0,1,23,20.73c.06-.07,2.61-.12,5.69-.12h5.56Z"/><path class="cls-2" d="M61.88,30h-3V16.22h6.53a4.45,4.45,0,0,1,1.71.32,3.63,3.63,0,0,1,1.31.89,4.14,4.14,0,0,1,.84,1.39,5.38,5.38,0,0,1,.29,1.79,4.65,4.65,0,0,1-.62,2.45,3.53,3.53,0,0,1-1.88,1.51l2.7,5.4H66.43l-2.4-5H61.88ZM65,22.41a1.54,1.54,0,0,0,1.06-.35,1.31,1.31,0,0,0,.38-1v-.87a1.3,1.3,0,0,0-.38-1A1.54,1.54,0,0,0,65,18.82H61.88v3.59Z"/><path class="cls-2" d="M77.78,30V24.59l-4.71-8.37h3.35l3,5.48h0l2.84-5.48H85.5l-4.71,8.35V30Z"/><path class="cls-2" d="M97.32,30l-1-3.27H91.75l-1,3.27h-3l4.53-13.75H96L100.44,30Zm-3.25-11H94l-1.51,5.22h3.15Z"/><path class="cls-2" d="M109.58,23.47l-1.32-2.76h-.06V30h-2.82V16.22h3.27l3.77,6.5,1.32,2.76h.06V16.22h2.81V30h-3.27Z"/><path class="cls-2" d="M130.37,30V16.22h6.5a4.34,4.34,0,0,1,1.73.33,3.76,3.76,0,0,1,1.31.89,4,4,0,0,1,.84,1.39,5.67,5.67,0,0,1,0,3.58,4,4,0,0,1-.84,1.38,3.76,3.76,0,0,1-1.31.89,4.34,4.34,0,0,1-1.73.33h-3.51v5Zm3-7.56h3.15a1.54,1.54,0,0,0,1.06-.35,1.31,1.31,0,0,0,.38-1v-.87a1.3,1.3,0,0,0-.38-1,1.54,1.54,0,0,0-1.06-.35h-3.15Z"/><path class="cls-2" d="M153.36,30l-1-3.27h-4.59l-1,3.27h-3l4.54-13.75H152L156.47,30Zm-3.25-11H150l-1.52,5.22h3.15Z"/><path class="cls-2" d="M164.41,30h-3V16.22h6.52a4.45,4.45,0,0,1,1.71.32,3.55,3.55,0,0,1,1.31.89,4.14,4.14,0,0,1,.84,1.39,5.13,5.13,0,0,1,.3,1.79,4.74,4.74,0,0,1-.62,2.45,3.59,3.59,0,0,1-1.89,1.51l2.7,5.4H169l-2.4-5h-2.15Zm3.15-7.56a1.54,1.54,0,0,0,1.06-.35,1.31,1.31,0,0,0,.38-1v-.87a1.3,1.3,0,0,0-.38-1,1.54,1.54,0,0,0-1.06-.35h-3.15v3.59Z"/><path class="cls-2" d="M186.2,30l-1-3.27h-4.59l-1,3.27h-3l4.53-13.75h3.7L189.32,30Zm-3.25-11h-.1l-1.51,5.22h3.15Z"/><path class="cls-2" d="M202.4,27.79h-.1a2.65,2.65,0,0,1-1.06,1.73,4,4,0,0,1-2.47.69,5.41,5.41,0,0,1-2.2-.45,5.21,5.21,0,0,1-1.8-1.34,6.4,6.4,0,0,1-1.2-2.21,9.77,9.77,0,0,1-.43-3.05,9.69,9.69,0,0,1,.45-3.08,6.34,6.34,0,0,1,1.27-2.24,5.3,5.3,0,0,1,2-1.38,6.5,6.5,0,0,1,2.54-.48,6.18,6.18,0,0,1,3.2.8,5.4,5.4,0,0,1,2.1,2.4l-2.44,1.39a3.4,3.4,0,0,0-1-1.36,2.82,2.82,0,0,0-1.88-.57,3,3,0,0,0-2.22.81,3.43,3.43,0,0,0-.83,2.54V24.2a3.42,3.42,0,0,0,.83,2.53,3,3,0,0,0,2.22.82,4,4,0,0,0,1-.13,2.66,2.66,0,0,0,.87-.39,2,2,0,0,0,.58-.64,1.8,1.8,0,0,0,.2-.89v-.69H199.5v-2.5h5.42V30H202.4Z"/></svg>