<svg id="Layer_1" data-name="Layer 1" xmlns="http://www.w3.org/2000/svg" viewBox="0 0 50 50"><defs><style>.cls-1,.cls-2,.cls-3,.cls-4{fill:none;stroke-miterlimit:10;stroke-width:2px;}.cls-1{stroke:#79cbca;}.cls-2{stroke:#e684ae;}.cls-3{stroke:#00d1b2;}.cls-4{stroke:#adadb0;}.cls-5{fill:#79cbca;}.cls-5,.cls-6,.cls-7,.cls-8{opacity:0.3;}.cls-6{fill:#e684ae;}.cls-7{fill:#00d1b2;}.cls-8{fill:#adadb0;}</style></defs><title>icons--components</title><rect class="cls-1" x="3.27" y="28.27" width="18.45" height="18.45" rx="1.01" ry="1.01"/><path class="cls-2" d="M36.84,4.78,27.92,20.22a1,1,0,0,0,.87,1.51H46.63a1,1,0,0,0,.87-1.51L38.58,4.78A1,1,0,0,0,36.84,4.78Z"/><circle class="cls-3" cx="12.5" cy="12.25" r="8.98"/><circle class="cls-4" cx="37.71" cy="37.5" r="8.98"/><rect class="cls-5" x="3.27" y="28.27" width="18.45" height="18.45" rx="1.01" ry="1.01"/><path class="cls-6" d="M36.84,4.78,27.92,20.22a1,1,0,0,0,.87,1.51H46.63a1,1,0,0,0,.87-1.51L38.58,4.78A1,1,0,0,0,36.84,4.78Z"/><circle class="cls-7" cx="12.5" cy="12.25" r="8.98"/><circle class="cls-8" cx="37.71" cy="37.5" r="8.98"/></svg>