<svg id="Layer_1" data-name="Layer 1" xmlns="http://www.w3.org/2000/svg" viewBox="0 0 50 50"><defs><style>.cls-1{fill:none;stroke:#00d1b2;stroke-width:2px;}.cls-2,.cls-3{fill:#00d1b2;}.cls-2{opacity:0.3;}</style></defs><title>icons--typography</title><rect class="cls-1" x="3.22" y="3.22" width="43.56" height="43.56" rx="1" ry="1"/><polygon class="cls-2" points="22.8 17 19.54 27.4 26.28 27.4 22.94 17 22.8 17"/><path class="cls-2" d="M45.78,3.22H4.22a1,1,0,0,0-1,1V45.78a1,1,0,0,0,1,1H45.78a1,1,0,0,0,1-1V4.22A1,1,0,0,0,45.78,3.22Zm-9,34.3H25.81V35.08h2.87L27,29.91H18.78l-1.72,5.17h2.87v2.44H12V35.08h1.83l7.92-22.6H27l7.92,22.6h1.83Z"/><path class="cls-3" d="M27,12.48l7.92,22.6h1.83v2.44H25.81V35.08h2.87L27,29.91H18.78l-1.72,5.17h2.87v2.44H12V35.08h1.83l7.92-22.6H27M19.54,27.4h6.74L22.94,17H22.8L19.54,27.4m8.87-16.92h-8l-.47,1.34L12.45,33.08H10v6.44H21.93V33.08h-2.1l.39-1.17h5.3l.39,1.17h-2.1v6.44H38.75V33.08H36.34L28.88,11.82l-.47-1.34ZM22.26,25.4l.63-2,.65,2Z"/></svg>