<svg id="Layer_1" data-name="Layer 1" xmlns="http://www.w3.org/2000/svg" viewBox="0 0 50 50"><defs><style>.cls-1,.cls-2{fill:none;stroke-width:2px;}.cls-1{stroke:#adadb0;stroke-linecap:round;stroke-linejoin:round;}.cls-2{stroke:#00d1b2;}</style></defs><title>icons--layout</title><path class="cls-1" d="M41,44.47a3.41,3.41,0,0,1-3.41,3.41H5.22A3.42,3.42,0,0,1,1.8,44.47V12.06A3.42,3.42,0,0,1,5.22,8.65h32.4A3.42,3.42,0,0,1,41,12.06V44.47ZM1.8,17.18H41"/><circle class="cls-1" cx="7.77" cy="12.91" r="1.18"/><circle class="cls-1" cx="12.89" cy="12.91" r="1.18"/><circle class="cls-1" cx="18.01" cy="12.91" r="1.18"/><path class="cls-2" d="M6.92,20.59h29v5.12h-29Zm0,8.53H12V42.76H6.92Zm10.24,0H35.92v5.11H17.16Zm0,8.53H35.92v5.11H17.16Z"/><path class="cls-2" d="M45.36,8.15H48.2M44.42,5.83,46.31,4m-4.63.93V2.12M39.32,5.83,37.43,4m7,6.49,1.89,1.86"/></svg>